<?xml version="1.0" standalone="no"?>
<!DOCTYPE svg PUBLIC "-//W3C//DTD SVG 20010904//EN"
 "http://www.w3.org/TR/2001/REC-SVG-20010904/DTD/svg10.dtd">
<svg version="1.0" xmlns="http://www.w3.org/2000/svg"
 width="1024.000000pt" height="1024.000000pt" viewBox="0 0 1024.000000 1024.000000"
 preserveAspectRatio="xMidYMid meet">

<g transform="translate(0.000000,1024.000000) scale(0.100000,-0.100000)"
fill="#003932" stroke="none">
<path d="M3931 8245 c-147 -32 -294 -100 -398 -185 -65 -53 -166 -166 -211
-237 -23 -37 -33 -43 -72 -49 -117 -16 -228 -49 -324 -97 -87 -43 -114 -64
-197 -146 -82 -82 -103 -110 -142 -191 -59 -119 -77 -188 -84 -315 -8 -164 27
-288 122 -421 92 -128 207 -193 560 -314 331 -113 490 -177 700 -279 522 -255
856 -594 969 -983 9 -32 19 -58 21 -58 13 0 152 228 209 342 150 305 275 728
476 1618 35 151 69 290 76 309 42 103 -17 201 -121 201 -56 0 -106 -27 -124
-67 -7 -16 -15 -55 -16 -88 -2 -33 -22 -132 -43 -220 -22 -88 -61 -252 -87
-365 -138 -597 -265 -1030 -367 -1248 l-35 -74 -11 149 c-22 282 -23 339 -12
513 13 210 39 410 85 665 84 466 87 486 88 625 0 155 -18 242 -81 388 -119
275 -361 474 -640 528 -92 17 -257 17 -341 -1z"/>
<path d="M5655 8201 c-142 -37 -235 -157 -235 -305 0 -119 89 -244 202 -282
106 -35 230 -7 317 71 154 139 110 403 -83 493 -52 25 -152 36 -201 23z"/>
<path d="M7560 7629 c-216 -23 -509 -85 -690 -148 -680 -234 -1115 -771 -1196
-1476 l-7 -59 109 124 c337 386 691 647 1130 835 106 46 365 137 371 131 6 -6
-318 -316 -412 -395 -209 -173 -360 -282 -583 -422 l-124 -78 49 -7 c26 -5
131 -8 233 -8 204 0 292 13 465 65 421 129 767 475 985 984 52 120 160 426
160 451 0 11 -38 14 -202 13 -112 -1 -241 -6 -288 -10z"/>
<path d="M2290 6406 c-231 -96 -390 -251 -475 -463 -79 -198 -75 -477 9 -666
24 -55 25 -60 10 -88 -25 -49 -53 -173 -60 -267 -25 -343 146 -661 459 -850
63 -38 221 -96 287 -106 l46 -7 32 107 c83 271 267 546 496 743 221 189 429
299 694 365 142 36 226 46 370 46 142 0 260 -17 377 -54 43 -14 75 -19 75 -14
0 6 -53 63 -117 127 -141 139 -310 256 -538 373 -197 100 -345 159 -720 283
-170 57 -347 120 -393 139 -166 71 -292 157 -405 275 -42 44 -81 81 -85 81 -4
-1 -32 -11 -62 -24z"/>
<path d="M6420 5726 c-263 -38 -512 -114 -730 -222 -184 -92 -274 -146 -433
-263 -122 -90 -154 -120 -88 -87 42 22 218 63 332 77 107 13 268 6 387 -16
282 -54 540 -220 674 -435 36 -58 128 -261 128 -283 0 -2 -35 30 -77 72 -134
132 -353 262 -547 326 -183 59 -261 70 -521 70 -210 0 -253 -3 -345 -23 -58
-12 -118 -26 -135 -31 l-30 -8 25 -6 c14 -3 57 -9 95 -12 137 -12 327 -71 483
-149 274 -138 523 -392 657 -671 155 -324 177 -690 60 -1015 -74 -205 -167
-345 -349 -525 -159 -159 -263 -235 -461 -338 -71 -37 -121 -65 -110 -63 11 3
65 15 120 26 440 90 818 239 1135 447 459 302 813 693 1030 1138 166 339 244
633 243 910 -1 118 -5 155 -27 239 -49 184 -118 315 -239 458 -151 177 -428
321 -717 373 -128 23 -434 29 -560 11z"/>
<path d="M4130 4926 c-314 -56 -584 -175 -809 -356 -288 -232 -472 -523 -517
-820 -49 -330 22 -593 234 -866 228 -292 571 -519 964 -638 188 -57 273 -70
463 -70 188 0 279 13 437 64 200 66 349 153 484 282 107 103 160 176 223 309
145 306 156 621 32 929 -83 206 -275 419 -473 528 -76 42 -225 99 -234 89 -3
-3 13 -29 35 -58 120 -158 168 -338 137 -520 -27 -162 -91 -286 -201 -387
-115 -105 -212 -142 -375 -142 -176 0 -284 44 -405 165 -88 88 -141 178 -172
295 -28 102 -25 338 6 450 78 290 319 548 625 670 43 18 94 34 112 37 19 3 34
9 34 13 0 30 -464 50 -600 26z"/>
</g>
</svg>
